<?xml version="1.0" encoding="utf-8"?>
<!-- Generator: Adobe Illustrator 17.1.0, SVG Export Plug-In . SVG Version: 6.00 Build 0)  -->
<!DOCTYPE svg PUBLIC "-//W3C//DTD SVG 1.1//EN" "http://www.w3.org/Graphics/SVG/1.1/DTD/svg11.dtd">
<svg version="1.1" id="Layer_1" xmlns="http://www.w3.org/2000/svg" xmlns:xlink="http://www.w3.org/1999/xlink" x="0px" y="0px"
	 viewBox="0 0 360 360" enable-background="new 0 0 360 360" xml:space="preserve">
<g>
	<g>
		<g>
			<g>
				<g>
					<path fill="#006834" d="M174.4,254c-7.8,8.8-17.2,16.3-28.2,22.6c-11,6.3-22.9,9.4-35.7,9.4c-11.8,0-22.9-2.1-33.2-6.4
						c-10.3-4.3-19.4-10.2-27.2-17.8c-7.8-7.6-14-16.6-18.5-27c-4.5-10.4-6.8-21.8-6.8-34.1c0-11.8,2.2-23,6.6-33.6
						c4.4-10.5,10.4-19.7,18.1-27.5c7.7-7.8,16.8-14,27.4-18.5s22-6.8,34.3-6.8c11.4,0,22.2,2.3,32.5,6.9
						c10.3,4.6,19.4,10.8,27.2,18.6c7.8,7.8,14,16.9,18.7,27.4c4.6,10.4,6.9,21.6,6.9,33.4v75c0,3.1-1.1,5.7-3.2,7.8
						c-2.1,2.1-4.7,3.2-7.8,3.2c-3.1,0-5.7-1.1-7.8-3.2c-2.1-2.1-3.2-4.7-3.2-7.8V254z M174.4,200.7c0-8.8-1.7-17.1-5-24.9
						c-3.3-7.8-7.9-14.6-13.7-20.4c-5.8-5.8-12.6-10.4-20.4-13.7c-7.8-3.3-16.1-5-24.9-5c-8.8,0-17,1.7-24.7,5
						c-7.7,3.3-14.4,7.9-20.2,13.7c-5.8,5.8-10.4,12.6-13.7,20.4c-3.3,7.8-5,16.1-5,24.9c0,8.8,1.7,17,5,24.7
						c3.3,7.7,7.9,14.4,13.7,20.3c5.8,5.8,12.5,10.4,20.2,13.7c7.7,3.3,15.9,5,24.7,5c8.5,0,16.6-1.6,24.2-4.8
						c7.6-3.2,14.3-7.6,20.1-13.3c5.8-5.7,10.4-12.4,13.9-20.1C172,218.4,173.9,210,174.4,200.7"/>
					<path fill="#009444" d="M170.9,140c-7.8-7.8-16.9-14-27.2-18.6c-10.3-4.6-21.1-6.9-32.5-6.9c-12.3,0-23.7,2.3-34.3,6.8
						c-10.5,4.5-19.7,10.7-27.4,18.5c-2.7,2.8-5.2,5.7-7.5,8.8c3.9,6.7,8.4,13.3,13.7,19.7c2.7-4.6,6-8.9,9.8-12.6
						c5.8-5.8,12.5-10.4,20.2-13.7c7.7-3.3,15.9-5,24.7-5c8.8,0,17.1,1.7,24.9,5c7.8,3.3,14.6,7.9,20.4,13.7
						c5.8,5.8,10.4,12.6,13.7,20.4c3.3,7.8,5,16.1,5,24.9c-0.3,6.2-1.3,12.1-3,17.6c7.9,0.2,16.3,0,25-0.7v-17
						c0-11.8-2.3-23-6.9-33.4C184.9,156.9,178.7,147.8,170.9,140"/>
				</g>
				<g>
					<path fill="#006834" d="M309.6,126.8c0-6,4.8-10.8,10.8-10.8c6,0,10.8,4.8,10.8,10.8V276c0,6-4.8,10.8-10.8,10.8
						c-6,0-10.8-4.8-10.8-10.8V126.8z"/>
					<path fill="#009444" d="M320.8,107.9c4,0,7.4-1.4,10.2-4.2c2.8-2.8,4.2-6.2,4.2-10.2c0-4-1.4-7.4-4.2-10.2
						c-2.8-2.8-6.2-4.2-10.2-4.2s-7.4,1.4-10.2,4.2c-2.8,2.8-4.2,6.2-4.2,10.2c0,4,1.4,7.4,4.2,10.2
						C313.4,106.5,316.8,107.9,320.8,107.9"/>
					<path fill="#009444" d="M331.3,173.6v-46.8c0-6-4.8-10.8-10.8-10.8c-6,0-10.8,4.8-10.8,10.8V186
						C317,182.5,324.4,178.4,331.3,173.6"/>
				</g>
				<g>
					<path fill="#006834" d="M260.4,227.9c4.9-4.6,8.8-8.6,11.8-11.9c3-3.4,5.4-6.4,7.1-9.2c1.7-2.8,2.9-5.4,3.4-8
						c0.6-2.5,0.9-5.2,0.9-8.1c0-4.1-0.7-8-2.2-11.6c-1.4-3.6-3.4-6.7-6-9.5c-2.6-2.7-5.7-4.8-9.2-6.3c-3.6-1.5-7.5-2.3-11.8-2.3
						c-6.7,0-12.6,1.8-17.5,5.5c-4.9,3.7-8.3,8.7-10,15.1c-0.6,1.9-1.3,3.4-2.3,4.6c-0.9,1.2-2.3,1.8-4.2,1.8
						c-1.9,0-3.4-0.6-4.6-1.8c-1.2-1.2-1.8-2.8-1.8-4.6c0-3.1,1-6.6,2.9-10.5c1.9-3.9,4.7-7.4,8.3-10.8c3.6-3.3,7.9-6,13-8.3
						c5.1-2.2,10.9-3.3,17.3-3.3c5.7,0,11.1,1.1,16,3.4c4.9,2.3,9.3,5.4,13,9.2c3.7,3.9,6.7,8.4,8.8,13.7c2.2,5.2,3.2,10.7,3.2,16.4
						c0,7-1.7,13.8-5.1,20.2c-3.4,6.5-8.7,13-16,19.6l-45.1,41.9h59.3c1.9,0,3.4,0.6,4.7,1.9c1.3,1.3,1.9,2.9,1.9,4.7
						c0,1.9-0.7,3.4-1.9,4.6c-1.3,1.2-2.9,1.8-4.7,1.8h-72.4c-0.4,0-1.1-0.1-2-0.2c-0.9-0.1-1.8-0.5-2.7-1c-0.9-0.5-1.7-1.2-2.4-2.2
						c-0.7-0.9-1.1-2.1-1.1-3.5c0.1-1.9,1.4-3.9,3.7-6.2L260.4,227.9z"/>
					<path fill="#009444" d="M293.3,175.1c-2.2-5.2-5.1-9.8-8.8-13.7c-3.7-3.9-8.1-6.9-13-9.2c-4.9-2.3-10.3-3.4-16-3.4
						c-6.4,0-12.2,1.1-17.3,3.3c-5.1,2.2-9.4,5-13,8.3c-3.6,3.3-6.3,6.9-8.3,10.8c-1.9,3.9-2.9,7.4-2.9,10.5c0,1.9,0.6,3.4,1.8,4.6
						c1.2,1.2,2.8,1.8,4.6,1.8c1.9,0,3.3-0.6,4.2-1.8c0.9-1.2,1.7-2.8,2.3-4.6c1.7-6.4,5.1-11.5,10-15.1c4.9-3.7,10.8-5.5,17.5-5.5
						c4.3,0,8.2,0.8,11.8,2.3c3.6,1.5,6.7,3.6,9.2,6.3c2.6,2.7,4.6,5.9,6,9.5c1.4,3.6,2.2,7.5,2.2,11.6c0,2.2-0.2,4.4-0.5,6.4
						c4.5-1.5,9-3.2,13.4-4.9c0-0.2,0-0.4,0-0.6C296.5,185.8,295.4,180.3,293.3,175.1"/>
				</g>
			</g>
			<g>
				<g>
					<path fill="#B11116" d="M162.5,200.1c0-28.7-23.2-51.9-51.9-51.9c-28.7,0-51.9,23.2-51.9,51.9c0,28.7,23.2,51.9,51.9,51.9
						C139.3,252,162.5,228.8,162.5,200.1"/>
					<path fill="#ED1D24" d="M110.6,148.3c-20.4,0-38.1,11.8-46.5,28.9c20.9,20.8,51.2,37.1,95.4,40.5c2-5.5,3.1-11.4,3.1-17.6
						C162.5,171.5,139.3,148.3,110.6,148.3"/>
				</g>
				<polygon fill="#FFFFFF" points="127.6,225.9 113.6,198.3 125.3,192.4 97.8,174.5 96.1,207.2 107.8,201.3 121.9,228.9 				"/>
			</g>
		</g>
		<g>
			<path fill="#231F20" d="M106.9,89.1c0,0,0.1-2.9,4.6-0.7c4.5,2.2,14.9,8.7,26.9,5.7c12-3,14.5-7.7,27.5-7.9
				c0,0,10.4,0.5,16.5,4.8c0,0-1.2-5.2-14.7-7.3c-13.5-2.2-18.1-0.2-25.5-1.1c-7.4-1-17.5-4.5-19.9-8.6c-2.3-4-2-9.4,2.2-10.3
				c0,0,4-0.8,7.7,3.1c3.7,3.9,12.5,9.4,20.8,8.3c8.3-1.1,9.8-2.1,9.8-2.1s-19.4,1.6-28.4-20.1c0,0-4.8-10.8-8.2-20
				c0,0-11.8-34.8-52.4-18.7c0,0,10.2,1.5,10.6,11.2c0,0,1.4,14.8-1.8,27.9c-3.2,13-1.8,44.9,45.3,52.7
				C128,106,105.4,99.1,106.9,89.1"/>
			<path fill="#231F20" d="M163.6,94.5c-2.4,0.2-4.6,0.9-6.8,1.7c-4.8,1.9-17.3,6.1-27.7,3c0,0,14.9,10.1,30.1,6.5
				c0,0,21.4-6.2,31.5,1.4C190.8,107.2,180.6,92.8,163.6,94.5"/>
			<path fill="#414042" d="M101.3,31.7c2.2,15.6-0.7,35.7,11.8,47.9c10.5,10.2,25.7,9.2,38.5,4.6c1.4-0.5,2.8-1,4.2-1.6
				c-5.3,0-8.9,0.5-13.6-0.1c-7.4-1-17.5-4.5-19.9-8.6c-2.3-4-2-9.4,2.2-10.3c0,0,4-0.8,7.7,3.1c3.7,3.9,12.5,9.4,20.8,8.3
				c8.3-1.1,9.8-2.1,9.8-2.1s-19.4,1.6-28.4-20.1c0,0-4.8-10.8-8.2-20c0,0-11.8-34.8-52.4-18.7c0,0,0.3,0,0.7,0.1
				C82.6,14.5,99.1,16.7,101.3,31.7"/>
			<path fill="#FFFFFF" d="M97.1,21.8c0.2-1.2-0.6-2.4-1.8-2.6c-1.2-0.2-2.4,0.6-2.6,1.8c-0.2,1.2,0.6,2.4,1.8,2.6
				C95.7,23.8,96.9,23,97.1,21.8"/>
		</g>
	</g>
	<g>
		<path fill="#006834" d="M62.6,318.9v-3.7h3.2v3.7H62.6z M62.6,341.6v-19.1h3.2v19.1H62.6z"/>
		<path fill="#006834" d="M70.8,341.6v-19.1h2.9v2.7c1.4-2.1,3.4-3.1,6.1-3.1c1.2,0,2.2,0.2,3.2,0.6s1.7,1,2.2,1.6
			c0.5,0.7,0.8,1.5,1,2.4c0.1,0.6,0.2,1.6,0.2,3.1v11.8H83V330c0-1.3-0.1-2.3-0.4-3c-0.3-0.7-0.7-1.2-1.3-1.6
			c-0.6-0.4-1.4-0.6-2.3-0.6c-1.4,0-2.6,0.4-3.6,1.3c-1,0.9-1.5,2.5-1.5,5v10.4H70.8z"/>
		<path fill="#006834" d="M91.3,341.6v-19.1h2.9v2.7c1.4-2.1,3.4-3.1,6.1-3.1c1.2,0,2.2,0.2,3.2,0.6s1.7,1,2.2,1.6
			c0.5,0.7,0.8,1.5,1,2.4c0.1,0.6,0.2,1.6,0.2,3.1v11.8h-3.2V330c0-1.3-0.1-2.3-0.4-3c-0.3-0.7-0.7-1.2-1.3-1.6
			c-0.6-0.4-1.4-0.6-2.3-0.6c-1.4,0-2.6,0.4-3.6,1.3c-1,0.9-1.5,2.5-1.5,5v10.4H91.3z"/>
		<path fill="#006834" d="M110.5,332c0-3.5,1-6.2,3-7.9c1.6-1.4,3.6-2.1,6-2.1c2.6,0,4.8,0.9,6.4,2.6c1.7,1.7,2.5,4.1,2.5,7.1
			c0,2.5-0.4,4.4-1.1,5.8c-0.7,1.4-1.8,2.5-3.2,3.3c-1.4,0.8-2.9,1.2-4.6,1.2c-2.7,0-4.8-0.9-6.5-2.6S110.5,335.3,110.5,332z
			 M113.9,332c0,2.4,0.5,4.3,1.6,5.5s2.4,1.8,4,1.8c1.6,0,2.9-0.6,4-1.8s1.6-3.1,1.6-5.6c0-2.4-0.5-4.2-1.6-5.4
			c-1.1-1.2-2.4-1.8-4-1.8c-1.6,0-3,0.6-4,1.8C114.4,327.8,113.9,329.6,113.9,332z"/>
		<path fill="#006834" d="M137.6,341.6l-7.3-19.1h3.4l4.1,11.4c0.4,1.2,0.9,2.5,1.2,3.9c0.3-1,0.7-2.2,1.2-3.6l4.2-11.7h3.3
			l-7.2,19.1H137.6z"/>
		<path fill="#006834" d="M163.2,339.2c-1.2,1-2.4,1.7-3.5,2.2s-2.3,0.6-3.6,0.6c-2.1,0-3.7-0.5-4.8-1.5c-1.1-1-1.7-2.3-1.7-3.9
			c0-0.9,0.2-1.8,0.6-2.6c0.4-0.8,1-1.4,1.7-1.9c0.7-0.5,1.5-0.8,2.3-1.1c0.6-0.2,1.6-0.3,2.9-0.5c2.6-0.3,4.5-0.7,5.8-1.1
			c0-0.4,0-0.7,0-0.8c0-1.3-0.3-2.3-0.9-2.8c-0.8-0.7-2.1-1.1-3.7-1.1c-1.5,0-2.6,0.3-3.4,0.8c-0.7,0.5-1.3,1.5-1.6,2.8l-3.2-0.4
			c0.3-1.4,0.8-2.5,1.4-3.3c0.7-0.8,1.6-1.5,2.9-1.9s2.7-0.7,4.3-0.7c1.6,0,3,0.2,4,0.6c1,0.4,1.8,0.9,2.2,1.4
			c0.5,0.6,0.8,1.3,1,2.2c0.1,0.6,0.2,1.5,0.2,3v4.3c0,3,0.1,4.9,0.2,5.7c0.1,0.8,0.4,1.6,0.8,2.3h-3.4
			C163.5,340.9,163.3,340.1,163.2,339.2z M162.9,332c-1.2,0.5-2.9,0.9-5.3,1.2c-1.3,0.2-2.3,0.4-2.8,0.6c-0.6,0.2-1,0.6-1.3,1.1
			c-0.3,0.5-0.5,1-0.5,1.5c0,0.9,0.3,1.6,1,2.2c0.7,0.6,1.6,0.9,2.9,0.9c1.2,0,2.4-0.3,3.3-0.8c1-0.5,1.7-1.3,2.1-2.2
			c0.3-0.7,0.5-1.8,0.5-3.2V332z"/>
		<path fill="#006834" d="M178.3,338.7l0.5,2.9c-0.9,0.2-1.7,0.3-2.4,0.3c-1.2,0-2.1-0.2-2.7-0.6c-0.6-0.4-1.1-0.9-1.4-1.5
			c-0.3-0.6-0.4-1.9-0.4-3.8v-11h-2.4v-2.5h2.4v-4.7l3.2-1.9v6.7h3.3v2.5H175v11.2c0,0.9,0.1,1.5,0.2,1.8c0.1,0.3,0.3,0.5,0.6,0.6
			c0.3,0.2,0.6,0.2,1.1,0.2C177.2,338.8,177.7,338.8,178.3,338.7z"/>
		<path fill="#006834" d="M194.5,335.4l3.3,0.4c-0.5,2-1.5,3.5-2.9,4.6c-1.4,1.1-3.3,1.6-5.5,1.6c-2.8,0-5-0.9-6.7-2.6
			s-2.5-4.1-2.5-7.2c0-3.2,0.8-5.7,2.5-7.5c1.7-1.8,3.8-2.7,6.4-2.7c2.6,0,4.6,0.9,6.3,2.6c1.6,1.7,2.4,4.2,2.4,7.3
			c0,0.2,0,0.5,0,0.9h-14.3c0.1,2.1,0.7,3.7,1.8,4.8c1.1,1.1,2.4,1.7,4,1.7c1.2,0,2.2-0.3,3-0.9C193.3,337.8,194,336.8,194.5,335.4z
			 M183.9,330.2h10.7c-0.1-1.6-0.6-2.8-1.2-3.6c-1-1.2-2.4-1.9-4-1.9c-1.5,0-2.7,0.5-3.8,1.5C184.5,327.2,184,328.5,183.9,330.2z"/>
		<path fill="#006834" d="M212.9,341.6V325h-2.9v-2.5h2.9v-2c0-1.3,0.1-2.2,0.3-2.9c0.3-0.8,0.9-1.5,1.6-2c0.8-0.5,1.9-0.8,3.3-0.8
			c0.9,0,1.9,0.1,3,0.3l-0.5,2.8c-0.7-0.1-1.3-0.2-1.9-0.2c-1,0-1.7,0.2-2.1,0.6c-0.4,0.4-0.6,1.2-0.6,2.4v1.8h3.7v2.5h-3.7v16.6
			H212.9z"/>
		<path fill="#006834" d="M221.2,332c0-3.5,1-6.2,3-7.9c1.6-1.4,3.6-2.1,6-2.1c2.6,0,4.8,0.9,6.4,2.6c1.7,1.7,2.5,4.1,2.5,7.1
			c0,2.5-0.4,4.4-1.1,5.8c-0.7,1.4-1.8,2.5-3.2,3.3c-1.4,0.8-2.9,1.2-4.6,1.2c-2.7,0-4.8-0.9-6.5-2.6S221.2,335.3,221.2,332z
			 M224.5,332c0,2.4,0.5,4.3,1.6,5.5c1.1,1.2,2.4,1.8,4,1.8c1.6,0,2.9-0.6,4-1.8c1.1-1.2,1.6-3.1,1.6-5.6c0-2.4-0.5-4.2-1.6-5.4
			c-1.1-1.2-2.4-1.8-4-1.8c-1.6,0-3,0.6-4,1.8C225.1,327.8,224.5,329.6,224.5,332z"/>
		<path fill="#006834" d="M242.9,341.6v-19.1h2.9v2.9c0.7-1.4,1.4-2.2,2.1-2.7c0.6-0.4,1.3-0.6,2.1-0.6c1.1,0,2.2,0.3,3.3,1l-1.1,3
			c-0.8-0.5-1.6-0.7-2.4-0.7c-0.7,0-1.3,0.2-1.9,0.6c-0.6,0.4-1,1-1.2,1.8c-0.4,1.2-0.5,2.4-0.5,3.8v10H242.9z"/>
		<path fill="#006834" d="M277.9,339.2c-1.2,1-2.4,1.7-3.5,2.2c-1.1,0.4-2.3,0.6-3.6,0.6c-2.1,0-3.7-0.5-4.8-1.5
			c-1.1-1-1.7-2.3-1.7-3.9c0-0.9,0.2-1.8,0.6-2.6c0.4-0.8,1-1.4,1.7-1.9c0.7-0.5,1.5-0.8,2.3-1.1c0.6-0.2,1.6-0.3,2.9-0.5
			c2.6-0.3,4.5-0.7,5.8-1.1c0-0.4,0-0.7,0-0.8c0-1.3-0.3-2.3-0.9-2.8c-0.8-0.7-2.1-1.1-3.7-1.1c-1.5,0-2.6,0.3-3.4,0.8
			c-0.7,0.5-1.3,1.5-1.6,2.8l-3.2-0.4c0.3-1.4,0.8-2.5,1.4-3.3c0.7-0.8,1.6-1.5,2.9-1.9s2.7-0.7,4.3-0.7c1.6,0,3,0.2,4,0.6
			s1.8,0.9,2.3,1.4c0.5,0.6,0.8,1.3,1,2.2c0.1,0.6,0.2,1.5,0.2,3v4.3c0,3,0.1,4.9,0.2,5.7c0.1,0.8,0.4,1.6,0.8,2.3h-3.4
			C278.2,340.9,278,340.1,277.9,339.2z M277.6,332c-1.2,0.5-2.9,0.9-5.3,1.2c-1.3,0.2-2.3,0.4-2.8,0.6s-1,0.6-1.3,1.1
			s-0.5,1-0.5,1.5c0,0.9,0.3,1.6,1,2.2c0.7,0.6,1.6,0.9,2.9,0.9c1.2,0,2.4-0.3,3.3-0.8s1.7-1.3,2.1-2.2c0.3-0.7,0.5-1.8,0.5-3.2V332
			z"/>
		<path fill="#006834" d="M285.8,341.6v-26.4h3.2v26.4H285.8z"/>
		<path fill="#006834" d="M294,341.6v-26.4h3.2v26.4H294z"/>
	</g>
</g>
</svg>
